<?xml version="1.0" encoding="utf-8"?>
<!-- Generator: Adobe Illustrator 15.0.0, SVG Export Plug-In . SVG Version: 6.00 Build 0)  -->
<!DOCTYPE svg [
	<!ENTITY ns_extend "http://ns.adobe.com/Extensibility/1.0/">
	<!ENTITY ns_ai "http://ns.adobe.com/AdobeIllustrator/10.0/">
	<!ENTITY ns_graphs "http://ns.adobe.com/Graphs/1.0/">
	<!ENTITY ns_vars "http://ns.adobe.com/Variables/1.0/">
	<!ENTITY ns_imrep "http://ns.adobe.com/ImageReplacement/1.0/">
	<!ENTITY ns_sfw "http://ns.adobe.com/SaveForWeb/1.0/">
	<!ENTITY ns_custom "http://ns.adobe.com/GenericCustomNamespace/1.0/">
	<!ENTITY ns_adobe_xpath "http://ns.adobe.com/XPath/1.0/">
]>
<svg version="1.2" baseProfile="tiny" id="Layer_1" xmlns:x="&ns_extend;" xmlns:i="&ns_ai;" xmlns:graph="&ns_graphs;"
	 xmlns="http://www.w3.org/2000/svg" xmlns:xlink="http://www.w3.org/1999/xlink" x="0px" y="0px" width="302.4003906px"
	 height="288px" viewBox="-0.0002441 0 302.4003906 288" overflow="inherit" xml:space="preserve">
<metadata>
	<sfw  xmlns="&ns_sfw;">
		<slices></slices>
		<sliceSourceBounds  x="521.8769531" y="253.1367188" width="235.2460938" height="214.7260742" bottomLeftOrigin="true">
			</sliceSourceBounds>
	</sfw>
</metadata>
<g>
	<g>
		<g>
			<path fill="#FFFFFF" d="M41.7907715,245.1914062c0.0146484-0.6035156,0.0273438-1.5449219-0.046875-2.1142578
				c-0.1757812-1.2666016-1.1308594-0.6767578-1.1308594-1.484375c0-0.5585938,0.6474609-0.7949219,1.1171875-0.7949219
				c0.3828125,0,3.0244141,0.1474609,4.2460938,0.1474609c0.2929688,0,3.2480469-0.1474609,3.453125-0.1474609
				c0.5712891,0,1.1757812,1.1621094,1.1757812,2.1601562c0,0.5-0.234375,1.0146484-0.7929688,1.0146484
				c-1.0146484,0-0.4863281-1.5146484-3.3076172-1.5146484c-0.8945312,0-1.2783203-0.0722656-1.2783203,2.0595703
				c0,0.2636719,0.015625,0.5136719,0.8662109,0.5136719c1.1337891,0,0.4121094-1.3515625,1.4394531-1.3515625
				c0.8398438,0,0.8964844,1.6015625,0.8964844,2.1738281c0,0.6923828-0.0742188,2.46875-1.0722656,2.46875
				c-0.9394531,0,0.0283203-1.6601562-1.5410156-1.6601562c-0.6464844,0-0.5595703,0.1191406-0.5742188,1.6308594
				c-0.0585938,2.1738281,1.4257812,0.9707031,1.4257812,2.0859375c0,0.3398438,0.1347656,0.984375-3.4384766,0.984375
				c-2.3505859,0-2.7324219-0.3378906-2.7324219-0.96875c0-0.8242188,0.7929688-0.4414062,1.1044922-1.2216797
				c0.1445312-0.4072266,0.1904297-1.4521484,0.1904297-1.9384766V245.1914062z"/>
			<path fill="#FFFFFF" d="M51.8239746,243.8251953c0-2.2773438-1.1152344-1.3388672-1.1152344-2.2480469
				c0-0.8095703,1.1455078-0.9121094,1.7324219-0.9121094c0.3085938,0,0.6035156,0.0283203,0.9101562,0.0449219
				c0.2949219,0.0263672,0.6035156,0.0595703,0.8955078,0.0595703c0.4707031,0,0.9414062-0.03125,1.4257812-0.0595703
				c0.4697266-0.0166016,0.9570312-0.0449219,1.4267578-0.0449219c1.6591797,0,3.5859375,0.7333984,3.5859375,2.6884766
				c0,0.8828125-0.4267578,1.734375-1.25,2.1308594c-0.1337891,0.0742188-0.234375,0.1191406-0.234375,0.2929688
				c0,0.2236328,0.1914062,0.28125,0.3671875,0.3544922c1.0292969,0.3837891,1.4814453,1.0615234,1.6884766,2.6455078
				c0.1767578,1.3652344,1.1318359,0.5410156,1.1318359,1.4394531c0,0.5566406-0.6767578,1.1445312-2.3388672,1.1445312
				c-2.3496094,0-2.640625-1.3515625-3.0976562-3.2910156c-0.1621094-0.6757812-0.4121094-1.3359375-1.21875-1.3359375
				c-0.3242188,0-0.4414062,0.0429688-0.4414062,0.9677734c0,0.4277344,0.0273438,1.015625,0.1025391,1.4277344
				c0.1162109,0.6767578,0.8662109,0.4697266,0.8662109,1.1738281c0,0.5292969-0.3662109,0.9267578-2.7470703,0.9267578
				c-0.7050781,0-2.7910156,0-2.7910156-1.0703125c0-0.765625,1.1015625-0.2363281,1.1015625-2.1464844V243.8251953
				L51.8239746,243.8251953z M55.2341309,244.4707031c-0.0332031,0.3808594-0.1044922,0.7050781,0.3808594,0.7050781
				c0.9550781,0,1.265625-0.5292969,1.265625-1.4394531c0-0.7207031-0.1796875-1.4541016-1.0302734-1.4541016
				c-0.5429688,0-0.5292969,0.3378906-0.5576172,0.7929688L55.2341309,244.4707031z"/>
			<path fill="#FFFFFF" d="M68.7683105,240.9003906c1.9667969,0,2.2480469-0.2929688,2.4794922-0.2929688
				c0.8378906,0,1.1894531,1.4394531,1.1894531,2.0859375c0,0.484375-0.1884766,1.0595703-0.7646484,1.0595703
				c-1.1591797,0-0.21875-1.4121094-3.0117188-1.4121094c-1.6308594,0-1.4667969,0.2949219-1.4667969,1.984375
				c0,0.8544922,0.0429688,0.8828125,0.9375,0.8828125c1.1171875,0,0.28125-1.6308594,1.3242188-1.6308594
				c0.8525391,0,0.9101562,1.6572266,0.9101562,2.2314453c0,0.6025391-0.1015625,2.3652344-0.984375,2.3652344
				c-0.9091797,0,0-1.5429688-1.4833984-1.5429688c-0.6191406,0-0.6025391,0.5585938-0.6025391,1.0273438
				c0,2.1464844,0.1464844,2.0429688,1.6884766,2.0429688c3.0136719,0,2.1621094-2.0703125,3.3671875-2.0703125
				c0.46875,0,0.7050781,0.5292969,0.7050781,0.9394531c0,0.9980469-0.7929688,2.7910156-1.3837891,2.7910156
				c-0.1015625,0-0.3378906-0.0449219-0.6445312-0.0878906c-0.3242188-0.0273438-0.7363281-0.0722656-1.2363281-0.0722656
				h-6.0371094c-0.9707031,0-0.9833984-0.4414062-0.9833984-0.6328125c0-0.8095703,0.9980469-0.1621094,1.1015625-1.71875
				c0.1777344-2.6748047,0.1914062-2.4101562,0.0449219-5.0683594c-0.1044922-2.25-1.21875-1.0878906-1.21875-2.1308594
				c0-0.8964844,1.2324219-0.75,1.8339844-0.75H68.7683105L68.7683105,240.9003906z"/>
			<path fill="#FFFFFF" d="M79.432373,240.9003906c1.9707031,0,2.25-0.2929688,2.4833984-0.2929688
				c0.8378906,0,1.1914062,1.4394531,1.1914062,2.0859375c0,0.484375-0.1933594,1.0595703-0.7666016,1.0595703
				c-1.1591797,0-0.2207031-1.4121094-3.0117188-1.4121094c-1.6289062,0-1.46875,0.2949219-1.46875,1.984375
				c0,0.8544922,0.0429688,0.8828125,0.9404297,0.8828125c1.1152344,0,0.2792969-1.6308594,1.3203125-1.6308594
				c0.8554688,0,0.9121094,1.6572266,0.9121094,2.2314453c0,0.6025391-0.1044922,2.3652344-0.9863281,2.3652344
				c-0.9091797,0,0-1.5429688-1.4833984-1.5429688c-0.6152344,0-0.6025391,0.5585938-0.6025391,1.0273438
				c0,2.1464844,0.1484375,2.0429688,1.6894531,2.0429688c3.0136719,0,2.1601562-2.0703125,3.3671875-2.0703125
				c0.4667969,0,0.7050781,0.5292969,0.7050781,0.9394531c0,0.9980469-0.7958984,2.7910156-1.3837891,2.7910156
				c-0.1035156,0-0.3378906-0.0449219-0.6455078-0.0878906c-0.3242188-0.0273438-0.7324219-0.0722656-1.234375-0.0722656h-6.0390625
				c-0.96875,0-0.9814453-0.4414062-0.9814453-0.6328125c0-0.8095703,0.9980469-0.1621094,1.1015625-1.71875
				c0.1757812-2.6748047,0.1894531-2.4101562,0.0429688-5.0683594c-0.1035156-2.25-1.21875-1.0878906-1.21875-2.1308594
				c0-0.8964844,1.2324219-0.75,1.8359375-0.75H79.432373L79.432373,240.9003906z"/>
		</g>
		<g>
			<path fill="#FFFFFF" d="M91.4509277,245.8964844c0.4570312-1.0136719,1.0566406-2.3085938,1.0566406-3.4667969
				c0-1.015625,0.4716797-1.7773438,1.7792969-1.7773438c1.2792969,0,2.0859375,1.3076172,2.6582031,2.2773438
				c0.25,0.4238281,2.46875,4.921875,3.0019531,6.125c0.4794922,1.1171875,1.2753906,0.4433594,1.2753906,1.2792969
				c0,1.0722656-2.0869141,1.0273438-2.8222656,1.0273438c-2.1005859,0-3.3652344-0.0136719-3.3652344-0.9257812
				c0-0.7050781,0.8964844-0.4394531,0.8964844-0.9550781c0-0.6601562-0.3652344-0.7167969-2.7324219-0.7167969
				c-0.7636719,0-1.21875,0.0263672-1.21875,0.7451172c0,0.5742188,0.9384766,0.1914062,0.9384766,0.9550781
				c0,0.8837891-1.5839844,0.8955078-2.1738281,0.8955078c-2.0996094,0-2.2910156-0.3955078-2.2910156-0.8642578
				c0-0.6904297,0.7929688-0.4882812,1.21875-1.0166016c0.3242188-0.3955078,0.6318359-1.0996094,0.8525391-1.5712891
				L91.4509277,245.8964844z M94.5368652,246.9560547c0.1464844,0,0.5878906,0.0283203,0.5878906-0.1904297
				c0-0.2197266-0.4277344-0.984375-0.5449219-1.1914062c-0.1328125-0.234375-0.3808594-0.7773438-0.703125-0.7773438
				c-0.3535156,0-0.6035156,0.8808594-0.6621094,1.0429688c-0.0576172,0.1621094-0.3085938,0.734375-0.3085938,0.9101562
				c0,0.25,0.3671875,0.2070312,0.53125,0.2070312h1.0996094V246.9560547z"/>
			<path fill="#FFFFFF" d="M102.5446777,243.8251953c0-2.2773438-1.1162109-1.3388672-1.1162109-2.2480469
				c0-0.8095703,1.1455078-0.9121094,1.7314453-0.9121094c0.3115234,0,0.6044922,0.0283203,0.9121094,0.0449219
				c0.2929688,0.0263672,0.6015625,0.0595703,0.8984375,0.0595703c0.46875,0,0.9384766-0.03125,1.421875-0.0595703
				c0.4726562-0.0166016,0.9570312-0.0449219,1.4277344-0.0449219c1.6601562,0,3.5839844,0.7333984,3.5839844,2.6884766
				c0,0.8828125-0.4257812,1.734375-1.2480469,2.1308594c-0.1308594,0.0742188-0.234375,0.1191406-0.234375,0.2929688
				c0,0.2236328,0.1914062,0.28125,0.3652344,0.3544922c1.03125,0.3837891,1.4863281,1.0615234,1.6894531,2.6455078
				c0.1777344,1.3652344,1.1328125,0.5410156,1.1328125,1.4394531c0,0.5566406-0.6757812,1.1445312-2.3378906,1.1445312
				c-2.3505859,0-2.6435547-1.3515625-3.0986328-3.2910156c-0.1591797-0.6757812-0.4111328-1.3359375-1.2207031-1.3359375
				c-0.3222656,0-0.4384766,0.0429688-0.4384766,0.9677734c0,0.4277344,0.0263672,1.015625,0.1015625,1.4277344
				c0.1171875,0.6767578,0.8671875,0.4697266,0.8671875,1.1738281c0,0.5292969-0.3671875,0.9267578-2.75,0.9267578
				c-0.703125,0-2.7910156,0-2.7910156-1.0703125c0-0.765625,1.1035156-0.2363281,1.1035156-2.1464844V243.8251953z
				 M105.9528809,244.4707031c-0.0292969,0.3808594-0.1035156,0.7050781,0.3828125,0.7050781
				c0.9550781,0,1.2646484-0.5292969,1.2646484-1.4394531c0-0.7207031-0.1767578-1.4541016-1.0292969-1.4541016
				c-0.5429688,0-0.5292969,0.3378906-0.5566406,0.7929688L105.9528809,244.4707031z"/>
			<path fill="#FFFFFF" d="M119.8220215,240.9003906c0.6328125,0,0.9277344-0.0585938,1.1484375-0.1035156
				c0.2041016-0.0566406,0.3212891-0.1015625,0.6015625-0.1015625c0.5742188,0,1.7636719,1.1308594,1.7636719,2.71875
				c0,0.7324219-0.3828125,1.21875-1.1308594,1.21875c-1.2792969,0-1.2636719-1.734375-2.0117188-1.734375
				c-0.5761719,0-0.5185547,0.7929688-0.5185547,0.9121094v4.5097656c0,1.75,1.3544922,0.9121094,1.3544922,1.9414062
				c0,0.4550781-0.2792969,1.0996094-3.0292969,1.0996094c-0.7480469,0-3.4941406,0.0292969-3.4941406-1.0996094
				c0-0.78125,0.9121094-0.4726562,1.2050781-1.0292969c0.1464844-0.3105469,0.2050781-1.1904297,0.2197266-1.5585938
				l0.1162109-3.2460938c0.0615234-1.5429688-0.25-1.5292969-0.4570312-1.5292969
				c-0.6572266,0-0.9814453,1.734375-2.171875,1.734375c-0.5742188,0-0.9101562-0.5292969-0.9101562-1.0566406
				c0-1.25,1.0576172-2.8808594,1.8955078-2.8808594c0.1035156,0,0.2636719,0.0449219,0.5449219,0.1015625
				c0.2792969,0.0449219,0.6738281,0.1035156,1.2636719,0.1035156H119.8220215L119.8220215,240.9003906z"/>
		</g>
		<path fill="#FFFFFF" d="M134.2214355,246.9541016c0-2.9716797,4.0273438-2.703125,4.0273438-3.9248047
			c0-0.2041016-0.1464844-0.3955078-0.3525391-0.3955078c-0.1328125,0-0.2050781,0.1044922-0.3828125,0.1044922
			c-0.1611328,0-0.3076172-0.1484375-0.3076172-0.3261719c0-0.8066406,1.3222656-1.1894531,1.9550781-1.1894531
			c1.1152344,0,2.2148438,0.6777344,2.2148438,1.8984375c0,1.8652344-2.1875,2.3632812-2.1875,2.8046875
			c0,0.4277344,1.1015625,0.484375,1.1015625,1.7617188c0,1.5722656-2.1152344,3.6757812-6.1132812,3.6757812
			c-3.8623047,0-6.0078125-2.0585938-6.0078125-4.1455078c0-1.8496094,1.6152344-2.1445312,1.6152344-2.4384766
			c0-0.1757812-0.5273438-0.8828125-0.5273438-1.5585938c0-1.6152344,1.8203125-2.7597656,3.65625-2.7597656
			c0.8261719,0,2.5859375,0.3359375,2.5859375,1.4238281c0,0.4121094-0.4082031,0.8535156-0.8378906,0.8535156
			c-0.4404297,0-0.7744141-0.6181641-1.4794922-0.6181641c-0.5615234,0-0.8984375,0.4853516-0.8984375,1.0136719
			c0,1.4414062,1.6044922,0.4697266,1.6044922,1.484375c0,1.7480469-1.7050781,0.5732422-1.7050781,1.9091797
			c0,1.484375,1.3808594,3.0429688,2.9091797,3.0429688c0.9804688,0,2.2304688-0.6455078,2.2304688-1.7783203
			c0-0.5283203-0.453125-0.8955078-0.9824219-0.8955078c-0.9277344,0-0.9853516,1.1015625-1.4550781,1.1015625
			C134.4274902,247.9951172,134.2214355,247.3203125,134.2214355,246.9541016z"/>
		<g>
			<path fill="#FFFFFF" d="M153.322998,240.9003906c0.6337891,0,0.9267578-0.0585938,1.1455078-0.1035156
				c0.2070312-0.0566406,0.3222656-0.1015625,0.6044922-0.1015625c0.5712891,0,1.7626953,1.1308594,1.7626953,2.71875
				c0,0.7324219-0.3828125,1.21875-1.1318359,1.21875c-1.2792969,0-1.2636719-1.734375-2.0136719-1.734375
				c-0.5732422,0-0.515625,0.7929688-0.515625,0.9121094v4.5097656c0,1.75,1.3535156,0.9121094,1.3535156,1.9414062
				c0,0.4550781-0.2792969,1.0996094-3.0273438,1.0996094c-0.75,0-3.4970703,0.0292969-3.4970703-1.0996094
				c0-0.78125,0.9111328-0.4726562,1.2060547-1.0292969c0.1464844-0.3105469,0.2041016-1.1904297,0.2197266-1.5585938
				l0.1162109-3.2460938c0.0605469-1.5429688-0.2480469-1.5292969-0.453125-1.5292969
				c-0.6601562,0-0.9833984,1.734375-2.1767578,1.734375c-0.5732422,0-0.9072266-0.5292969-0.9072266-1.0566406
				c0-1.25,1.0576172-2.8808594,1.8935547-2.8808594c0.1025391,0,0.2636719,0.0449219,0.5419922,0.1015625
				c0.2822266,0.0449219,0.6767578,0.1035156,1.2646484,0.1035156H153.322998L153.322998,240.9003906z"/>
			<path fill="#FFFFFF" d="M163.1101074,240.9003906c1.96875,0,2.2460938-0.2929688,2.4814453-0.2929688
				c0.8388672,0,1.1914062,1.4394531,1.1914062,2.0859375c0,0.484375-0.1914062,1.0595703-0.7675781,1.0595703
				c-1.1582031,0-0.2197266-1.4121094-3.0107422-1.4121094c-1.6308594,0-1.46875,0.2949219-1.46875,1.984375
				c0,0.8544922,0.0429688,0.8828125,0.9394531,0.8828125c1.1142578,0,0.2783203-1.6308594,1.3212891-1.6308594
				c0.8525391,0,0.9121094,1.6572266,0.9121094,2.2314453c0,0.6025391-0.1015625,2.3652344-0.9853516,2.3652344
				c-0.9082031,0,0-1.5429688-1.484375-1.5429688c-0.6171875,0-0.6015625,0.5585938-0.6015625,1.0273438
				c0,2.1464844,0.1474609,2.0429688,1.6884766,2.0429688c3.0136719,0,2.1582031-2.0703125,3.3652344-2.0703125
				c0.4707031,0,0.703125,0.5292969,0.703125,0.9394531c0,0.9980469-0.7910156,2.7910156-1.3808594,2.7910156
				c-0.1025391,0-0.3369141-0.0449219-0.6455078-0.0878906c-0.3222656-0.0273438-0.734375-0.0722656-1.234375-0.0722656h-6.0380859
				c-0.9697266,0-0.9833984-0.4414062-0.9833984-0.6328125c0-0.8095703,0.9990234-0.1621094,1.1025391-1.71875
				c0.1767578-2.6748047,0.1914062-2.4101562,0.0449219-5.0683594c-0.1044922-2.25-1.2216797-1.0878906-1.2216797-2.1308594
				c0-0.8964844,1.2353516-0.75,1.8369141-0.75H163.1101074L163.1101074,240.9003906z"/>
			<path fill="#FFFFFF" d="M173.5847168,240.6484375c1.4414062,0,2.3671875,0.7197266,2.7480469,0.7197266
				c0.3222656,0,0.4121094-0.1025391,0.6601562-0.1025391c0.6191406,0,1.4121094,0.9257812,1.4121094,2.5576172
				c0,0.8378906-0.5,1.5429688-1.3671875,1.5429688c-1.5136719,0-1.1328125-2.6025391-3.7480469-2.6025391
				c-1.1289062,0-1.6015625,1.0595703-1.6015625,1.8671875c0,2.1738281,1.1621094,4.0253906,3.21875,4.0253906
				c1.8652344,0,2.1455078-1.0136719,2.5996094-1.0136719c0.4306641,0,0.6337891,0.4980469,0.6337891,0.8662109
				c0,0.6455078-0.6748047,1.9980469-1.4082031,1.9980469c-0.5019531,0-1.5273438,0.8544922-3.2646484,0.8544922
				c-3.0839844,0-5.6103516-2.4394531-5.6103516-5.3935547
				C167.8562012,242.9541016,170.6901855,240.6484375,173.5847168,240.6484375z"/>
			<path fill="#FFFFFF" d="M189.7175293,248.7753906c0,0.4414062,0.0595703,0.6621094,0.4550781,0.8818359
				c0.2949219,0.1611328,0.5,0.2519531,0.5,0.6181641c0,0.3525391-0.0263672,1.0859375-2.9238281,1.0859375
				c-0.6474609,0-2.5263672-0.0136719-2.5263672-0.9970703c-0.0576172-1.1318359,1.0283203,0.1162109,1.0283203-2.8652344
				c0-0.7929688-0.1777344-0.7646484-0.9101562-0.7646484c-2.0585938,0-1.8642578,0.0595703-1.8642578,1.3837891
				c0,2.0097656,0.9072266,1.2021484,0.9072266,2.1572266c0,1.0273438-2.1445312,1.0859375-2.8476562,1.0859375
				c-0.6796875,0-2.7207031-0.0585938-2.7207031-1.0566406c0-0.3085938,0.2207031-0.5,0.4707031-0.6191406
				c0.5273438-0.2480469,0.71875-0.2050781,0.71875-3.2744141c0-3.9082031-0.0566406-3.5839844-0.6015625-3.8789062
				c-0.2207031-0.1171875-0.484375-0.2480469-0.484375-0.5439453c0-1.1308594,2.4550781-1.2470703,3.2773438-1.2470703
				c0.6191406,0,2.3183594,0.0712891,2.3183594,0.9521484c0,0.4570312-0.2480469,0.6171875-0.5869141,0.8242188
				c-0.3662109,0.2050781-0.4521484,0.3808594-0.4521484,1.6894531c0,0.8222656,0.3808594,0.71875,1.0859375,0.71875h0.75
				c0.9707031,0,0.9384766-0.1464844,0.9384766-0.6015625c0-1.6015625-0.25-1.7050781-0.4384766-1.8066406
				c-0.28125-0.1621094-0.546875-0.2949219-0.546875-0.6787109c0-0.2763672-0.0556641-1.1005859,2.8642578-1.1005859
				c0.6914062,0,2.6455078,0.0146484,2.6455078,1.0439453c0,0.3232422-0.1601562,0.5429688-0.453125,0.6884766
				c-0.4394531,0.1914062-0.6044922,0.1464844-0.6044922,2.4824219v3.8222656H189.7175293z"/>
			<path fill="#FFFFFF" d="M199.0476074,244.4414062c0.1787109,0.1464844,0.6484375,0.5742188,0.9121094,0.5742188
				c0.3671875,0,0.3828125-0.6035156,0.3828125-0.8535156c0-0.3671875-0.015625-0.9960938-0.1328125-1.3359375
				c-0.2070312-0.6171875-0.9833984-0.3964844-0.9833984-1.1914062c0-0.9394531,1.4960938-0.8945312,2.1123047-0.8945312
				c0.6484375,0,2.2480469-0.0742188,2.2480469,0.9394531c0,0.8378906-0.7763672,0.5283203-1.0263672,1.2041016
				c-0.1914062,0.5292969-0.1914062,1.4394531-0.1914062,1.9980469V248.6875c0,0.6621094,0.0878906,2.6738281-0.8945312,2.6738281
				c-0.2949219,0-0.5449219-0.1738281-0.7666016-0.3652344l-4.5390625-4.0703125
				c-0.203125-0.1914062-0.5878906-0.5449219-0.8955078-0.5449219c-0.4570312,0-0.46875,0.9550781-0.46875,1.2617188
				c0,0.4121094,0.0117188,0.9570312,0.1015625,1.3378906c0.2207031,0.9414062,1,0.5878906,1,1.3115234
				c0,0.9814453-1.5136719,1.0693359-2.203125,1.0693359c-0.6757812,0-2.1904297-0.0878906-2.1904297-1.0429688
				c0-0.7783203,0.8515625-0.46875,0.9980469-1.4072266c0.1035156-0.6337891,0.1328125-1.5615234,0.1328125-2.2216797
				c0-1.0585938,0-2.1308594-0.1601562-3.1875c-0.2363281-1.4707031-1.2929688-0.8964844-1.2929688-1.7792969
				c0-1.0429688,1.9833984-0.9814453,2.6445312-0.9814453c0.9121094,0,1.0722656,0.0566406,1.7324219,0.6445312
				L199.0476074,244.4414062z"/>
			<path fill="#FFFFFF" d="M204.1608887,245.96875c0-3.1171875,2.484375-5.3203125,5.6865234-5.3203125
				c4.0566406,0,5.6123047,3.5722656,5.6123047,5.4648438c0,3.1601562-2.7910156,5.2480469-5.7890625,5.2480469
				C206.5710449,251.3613281,204.1608887,249.0976562,204.1608887,245.96875z M209.1706543,242.8378906
				c-0.8212891,0-1.2314453,0.8515625-1.2314453,1.5722656c0,1.25,0.8808594,4.7597656,2.4667969,4.7597656
				c0.8984375,0,1.28125-0.7773438,1.28125-1.5722656C211.6872559,246.2597656,210.892334,242.8378906,209.1706543,242.8378906z"/>
			<path fill="#FFFFFF" d="M217.4577637,251.1542969c-0.4707031,0-1.21875,0.0292969-1.21875-0.6455078
				c0-0.9091797,1.1455078-0.1474609,1.1933594-1.8515625c0.0244141-1.0722656,0.0244141-2.0126953,0.0244141-2.8818359
				c0-0.8789062-0.0722656-1.7021484-0.1015625-2.5263672c-0.0292969-1.2314453-1.3242188-0.5859375-1.3242188-1.4238281
				c0-1.0722656,2.3085938-1.1318359,3.0292969-1.1318359c2.9375,0.0722656,3.0859375,0.4980469,3.0859375,0.9980469
				c0,0.8525391-1.1640625,0.2070312-1.1640625,1.5859375v4.6748047c0,1.0595703,0.1777344,1.5712891,1.2207031,1.5712891
				c2.5,0,1.6464844-2.0429688,2.5878906-2.0429688c0.6601562,0,0.9101562,0.7050781,0.9101562,1.2646484
				c0,1.1455078-0.8222656,2.6162109-1.5,2.6162109c-0.2617188,0-0.46875-0.0605469-0.7324219-0.1044922
				c-0.2783203-0.0566406-0.6035156-0.1015625-1.1035156-0.1015625h-4.9072266V251.1542969z"/>
			<path fill="#FFFFFF" d="M225.9499512,245.96875c0-3.1171875,2.4863281-5.3203125,5.6894531-5.3203125
				c4.0527344,0,5.6103516,3.5722656,5.6103516,5.4648438c0,3.1601562-2.7929688,5.2480469-5.7910156,5.2480469
				C228.3601074,251.3613281,225.9499512,249.0976562,225.9499512,245.96875z M230.9616699,242.8378906
				c-0.8232422,0-1.2333984,0.8515625-1.2333984,1.5722656c0,1.25,0.8828125,4.7597656,2.46875,4.7597656
				c0.8945312,0,1.2773438-0.7773438,1.2773438-1.5722656C233.4743652,246.2597656,232.6813965,242.8378906,230.9616699,242.8378906
				z"/>
			<path fill="#FFFFFF" d="M244.4782715,249.2148438c0.515625,0,0.8955078-0.3808594,0.8955078-0.9101562
				c0-1.21875-1.5410156-0.0292969-1.5410156-1.3828125c0-1.0722656,2.21875-1.1464844,2.9667969-1.1464844
				c2.7646484,0,2.9248047,0.78125,2.9248047,1.2070312c0,0.3837891-0.3222656,0.6455078-0.6767578,0.703125
				c-0.3828125,0.0449219-0.4121094,0.1191406-0.5117188,0.5c-0.5742188,2.1455078-2.6474609,3.1757812-4.7314453,3.1757812
				c-3.1152344,0-5.8320312-2.1611328-5.8320312-5.4072266c0-3.1025391,2.6308594-5.3056641,5.7724609-5.3056641
				c1.2910156,0,1.9980469,0.3964844,2.3808594,0.3964844c0.2646484,0,0.6455078-0.2207031,0.9101562-0.2207031
				c0.9101562,0,1.4550781,1.5,1.4550781,2.2480469c0,0.7207031-0.3671875,1.4550781-1.1621094,1.4550781
				c-1.453125,0-1.453125-2.0429688-3.4511719-2.0429688c-1.2783203,0-2.1035156,1.0585938-2.1035156,2.6171875
				C241.7741699,248.1269531,243.5378418,249.2148438,244.4782715,249.2148438z"/>
			<path fill="#FFFFFF" d="M258.3083496,244.7792969c-0.6484375,0.8095703-0.6933594,1.25-0.6933594,2.2773438
				c0,1.3544922,0.0722656,1.9394531,0.2070312,2.21875c0.2050781,0.4267578,0.984375,0.3378906,0.984375,1.0292969
				c0,1.0566406-2.3222656,1.0566406-3.0410156,1.0566406c-2.8818359,0-3.2646484-0.6591797-3.2646484-1.0566406
				c0-0.7949219,0.8378906-0.5,1.1025391-1.1015625c0.1455078-0.3378906,0.2333984-1.015625,0.2333984-2.4394531
				c0-0.8378906-0.1308594-1.1171875-0.6445312-1.7792969l-1.6601562-1.9238281
				c-0.7207031-0.8378906-1.6738281-0.6035156-1.6738281-1.3222656c0-0.3378906-0.1044922-0.9970703,3.3173828-0.9970703
				c3.0595703,0,3.0292969,0.5712891,3.0292969,0.8945312c0,0.3818359-0.4101562,0.5292969-0.4101562,0.8388672
				c0,0.3232422,0.5859375,1.25,0.9511719,1.25c0.3847656,0,1-0.78125,1-1.1171875c0-0.4121094-0.4257812-0.4414062-0.4257812-1
				c0-0.8652344,1.703125-0.8652344,2.2617188-0.8652344c1.8359375,0,2.3203125,0.21875,2.3203125,0.8652344
				c0,0.9404297-1.0546875,0.3955078-1.7910156,1.1904297L258.3083496,244.7792969z"/>
		</g>
	</g>
	<g>
		<g>
			<path fill="#FFFFFF" d="M54.032959,200.1181641c0.0722656-3,0.1464844-7.6845703-0.21875-10.5351562
				c-0.8789062-6.2910156-5.6347656-3.3652344-5.6347656-7.3916016c0-2.7802734,3.21875-3.9501953,5.5605469-3.9501953
				c1.9023438,0,15.0722656,0.7314453,21.1445312,0.7314453c1.4658203,0,16.1708984-0.7314453,17.1933594-0.7314453
				c2.8525391,0,5.8544922,5.7783203,5.8544922,10.7558594c0,2.4853516-1.1699219,5.046875-3.9511719,5.046875
				c-5.046875,0-2.4140625-7.5332031-16.4589844-7.5332031c-4.4648438,0-6.3671875-0.3642578-6.3671875,10.2421875
				c0,1.3154297,0.0722656,2.5615234,4.3144531,2.5615234c5.6367188,0,2.0527344-6.7304688,7.1699219-6.7304688
				c4.1699219,0,4.4648438,7.9726562,4.4648438,10.828125c0,3.4375-0.3652344,12.2890625-5.3417969,12.2890625
				c-4.6826172,0,0.1474609-8.2636719-7.6826172-8.2636719c-3.21875,0-2.7792969,0.5820312-2.8535156,8.1191406
				c-0.2910156,10.8271484,7.0976562,4.8271484,7.0976562,10.3886719c0,1.6835938,0.6582031,4.9023438-17.1210938,4.9023438
				c-11.7050781,0-13.6064453-1.6826172-13.6064453-4.828125c0-4.0966797,3.9482422-2.1953125,5.4873047-6.0742188
				c0.7304688-2.0488281,0.9492188-7.2421875,0.9492188-9.65625V200.1181641L54.032959,200.1181641z"/>
		</g>
		<g>
			<path fill="#FFFFFF" d="M102.6911621,230.8457031c-4.9042969,0-8.8525391-3.953125-8.8525391-8.8544922
				c0-4.9023438,3.9472656-8.8525391,8.8525391-8.8525391c4.9013672,0,8.8535156,3.9492188,8.8535156,8.8525391
				S107.5935059,230.8457031,102.6911621,230.8457031z"/>
			<path fill="#FFFFFF" d="M129.1774902,203.4091797c2.2685547-5.0498047,5.2685547-11.4863281,5.2685547-17.2685547
				c0-5.0449219,2.3417969-8.8515625,8.8535156-8.8515625c6.3642578,0,10.3896484,6.5097656,13.2412109,11.3398438
				c1.2441406,2.1230469,12.2910156,24.5097656,14.9238281,30.5097656c2.4140625,5.5615234,6.3671875,2.1953125,6.3671875,6.3652344
				c0,5.3417969-10.3886719,5.1210938-14.0488281,5.1210938c-10.4619141,0-16.7509766-0.0742188-16.7509766-4.609375
				c0-3.5117188,4.4609375-2.1953125,4.4609375-4.7539062c0-3.2949219-1.8291016-3.5878906-13.6064453-3.5878906
				c-3.8076172,0-6.0742188,0.1464844-6.0742188,3.7324219c0,2.8535156,4.6835938,0.9511719,4.6835938,4.7558594
				c0,4.3886719-7.8994141,4.4628906-10.8261719,4.4628906c-10.4648438,0-11.4160156-1.9765625-11.4160156-4.3183594
				c0-3.4375,3.9511719-2.4140625,6.0722656-5.0449219c1.609375-1.9765625,3.1464844-5.4882812,4.2441406-7.8300781
				L129.1774902,203.4091797z M144.541748,208.6757812c0.7333984,0,2.9267578,0.1464844,2.9267578-0.9511719
				c0-1.0966797-2.1220703-4.8994141-2.7041016-5.9257812c-0.6591797-1.171875-1.9042969-3.8769531-3.5146484-3.8769531
				c-1.7539062,0-2.9990234,4.3886719-3.2929688,5.1953125c-0.2929688,0.8027344-1.5371094,3.6582031-1.5371094,4.5351562
				c0,1.2441406,1.8310547,1.0224609,2.6328125,1.0224609h5.4892578V208.6757812z"/>
			<path fill="#FFFFFF" d="M189.322998,230.8457031c-4.9023438,0-8.8515625-3.953125-8.8515625-8.8544922
				c0-4.9023438,3.9482422-8.8525391,8.8515625-8.8525391s8.8515625,3.9492188,8.8515625,8.8525391
				S194.2263184,230.8457031,189.322998,230.8457031z"/>
		</g>
		<g>
			<path fill="#FFFFFF" d="M237.3190918,178.7539062c3.1445312,0,4.6083984-0.2929688,5.7050781-0.5136719
				c1.0263672-0.2910156,1.6103516-0.5117188,3.0019531-0.5117188c2.8535156,0,8.7792969,5.6367188,8.7792969,13.5351562
				c0,3.6572266-1.9023438,6.0732422-5.6357422,6.0732422c-6.3642578,0-6.2910156-8.6328125-10.0224609-8.6328125
				c-2.8525391,0-2.5615234,3.9482422-2.5615234,4.5351562v22.4609375c0,8.7070312,6.7304688,4.5361328,6.7304688,9.6591797
				c0,2.2685547-1.3896484,5.4863281-15.0703125,5.4863281c-3.7294922,0-17.4140625,0.1484375-17.4140625-5.4863281
				c0-3.8769531,4.5351562-2.3417969,6-5.1230469c0.7324219-1.5361328,1.0253906-5.9257812,1.1005859-7.7539062
				l0.5839844-16.1699219c0.2929688-7.6816406-1.2441406-7.6064453-2.2685547-7.6064453
				c-3.2929688,0-4.9042969,8.6328125-10.828125,8.6328125c-2.8535156,0-4.5390625-2.6347656-4.5390625-5.2705078
				c0-6.21875,5.2685547-14.3398438,9.4414062-14.3398438c0.5097656,0,1.3164062,0.2216797,2.7070312,0.5126953
				c1.3886719,0.2207031,3.3652344,0.5136719,6.2910156,0.5136719h17.9990234V178.7539062z"/>
		</g>
		<path fill="#FFFFFF" d="M259.2019043,230.8457031c-4.9023438,0-8.8515625-3.953125-8.8515625-8.8544922
			c0-4.9023438,3.9482422-8.8525391,8.8515625-8.8525391c4.9003906,0,8.8544922,3.9492188,8.8544922,8.8525391
			S264.1032715,230.8457031,259.2019043,230.8457031z"/>
	</g>
	<g>
		<path fill="#FFFF00" d="M138.8640137,169.7001953H58.1560059c-13.5751953,0-24.5791016-11.0048828-24.5791016-24.5761719
			c0-13.5791016,11.0039062-24.5820312,24.5791016-24.5820312c0,0,6.2724609-0.5991211,11.0068359,2.5629883
			L138.8640137,169.7001953"/>
		<path fill="#FF00FF" d="M135.1813965,160.7734375l-70.0478516-46.8261719
			c-11.4101562-7.3510742-14.7021484-22.5625-7.3515625-33.972168c7.3515625-11.4111328,22.5615234-14.703125,33.9726562-7.3540039
			c0,0,5.5996094,2.8911133,7.8671875,8.1166992L135.1813965,160.7734375"/>
		<path fill="#FFFF00" d="M100.517334,70.6918945l35.4609375,79.5678711l10.3935547-77.3857422
			c-1.7558594-6.0161133-8.515625-6.9731445-8.515625-6.9731445l-0.2021484-1.6586914l10.4765625-0.1494141v-2.8828125
			c0-13.5698242-11.0009766-24.5727539-24.5712891-24.5727539S98.9870605,47.6401367,98.9870605,61.2099609
			C98.9851074,61.2099609,98.5358887,63.1308594,100.517334,70.6918945z"/>
		<path fill="#FF00FF" d="M163.5358887,169.7001953h80.7089844c13.5742188,0,24.578125-11.0048828,24.578125-24.5761719
			c0-13.5791016-11.0039062-24.5820312-24.578125-24.5820312c0,0-6.2705078-0.5991211-11.0078125,2.5629883L163.5358887,169.7001953
			"/>
		<path fill="#FFFF00" d="M167.220459,160.7734375l70.046875-46.8261719
			c11.4121094-7.3510742,14.703125-22.5625,7.3515625-33.972168c-7.3515625-11.4111328-22.5605469-14.703125-33.9726562-7.3540039
			c0,0-5.5986328,2.8911133-7.8652344,8.1166992L167.220459,160.7734375"/>
		<path fill="#FF00FF" d="M201.885498,70.6918945l-35.4628906,79.5678711l-12.1513672-86.1679688v-2.8818359
			c0-13.5698242,11.0019531-24.5727539,24.5712891-24.5727539c13.5703125,0,24.5722656,11.0029297,24.5722656,24.5727539
			C203.4147949,61.2099609,203.8640137,63.1308594,201.885498,70.6918945z"/>
	</g>
</g>
</svg>
